<svg id="Capa_1" enable-background="new 0 0 501 501" height="512" viewBox="0 0 501 501" width="512" xmlns="http://www.w3.org/2000/svg"><g><path d="m10.401 305c-3.214-15.833-4.901-32.219-4.901-49 0-135.31 109.69-245 245-245s245 109.69 245 245c0 16.781-1.687 33.167-4.901 49z" fill="#8c96dd"/><path d="m491.56 300c-10.191 56.197-39.55 105.717-81.06 141.544-11.057-32.726-41.753-54.755-76.296-54.755h-290.91c-16.461-26.024-28.155-55.362-33.854-86.789z" fill="#717ed6"/><path d="m410.5 420v21.545c-27.384 23.635-60.055 41.31-96 51.011-1.457.393-2.92-3.893-4.388-3.526-19.083 4.77-39.052 7.303-59.612 7.303-2.006 0-4.006 4.643-6 4.595-45.488-1.093-87.905-14.585-124-37.224v-43.704c0-38.66 31.34-70 70-70h150c38.66 0 70 31.34 70 70z" fill="#adebdc"/><path d="m350.5 440v39.729c-6.521 2.919-13.192 5.562-20 7.912v-47.641c0-5.523 4.477-10 10-10s10 4.477 10 10z" fill="#24d3b5"/><path d="m249.5 404.333c-24.853 0-45-20.147-45-45v-9.333h90v9.333c0 24.853-20.147 45-45 45z" fill="#93e2c6"/><path d="m385.885 160c0 60.751-49.249 110-110 110h-50.769c-60.751 0-110-49.249-110-110 0-52.419 36.666-96.274 85.749-107.318-6.349-5.501-10.365-13.622-10.365-22.682 0-16.569 13.431-30 30-30h60c16.569 0 30 13.431 30 30 0 9.06-4.016 17.181-10.365 22.682 49.084 11.044 85.75 54.899 85.75 107.318z" fill="#ffde91"/><path d="m385.885 160c0 60.752-49.249 110-110 110-60.751 0-110-49.249-110-110 0-60.751 49.249-110 110-110 60.751 0 110 49.249 110 110z" fill="#fcf2b6"/><path d="m140.5 260c-13.807 0-25-11.193-25-25v-10c0-13.807 11.193-25 25-25 13.807 0 25 11.193 25 25v10c0 13.807-11.193 25-25 25z" fill="#f2bb88"/><path d="m130.5 220v20c0 8.178 3.927 15.439 9.998 20-13.806-.001-24.998-11.194-24.998-25v-10c0-13.806 11.192-24.999 24.998-25-6.071 4.561-9.998 11.822-9.998 20zm230-20v-20c0-60.751-49.249-110-110-110-60.751 0-110 49.249-110 110v40c0 50.351 33.83 92.801 80 105.859v34.141c0 16.569 13.431 30 30 30s30-13.431 30-30v-34.141c33.586-9.499 60.641-34.551 72.895-66.883 2.252.666 4.637 1.024 7.105 1.024 13.807 0 25-11.193 25-25v-10c0-13.807-11.193-25-25-25z" fill="#e3a76f"/><path d="m360.5 180v40c0 50.792-34.425 93.543-81.216 106.195-9.023 2.44-18.545 2.44-27.568 0-46.791-12.652-81.216-55.403-81.216-106.195v-40c0-55.663 41.345-101.669 95-108.985 53.655 7.316 95 53.322 95 108.985z" fill="#f2bb88"/><path d="m218 187.5c0 8.284-6.716 15-15 15s-15-6.716-15-15 6.716-15 15-15 15 6.716 15 15zm80-15c-8.284 0-15 6.716-15 15s6.716 15 15 15 15-6.716 15-15-6.716-15-15-15z" fill="#0a3575"/><path d="m220.5 180c0 4.142-3.358 7.5-7.5 7.5s-7.5-3.358-7.5-7.5 3.358-7.5 7.5-7.5 7.5 3.358 7.5 7.5zm87.5-7.5c-4.142 0-7.5 3.358-7.5 7.5s3.358 7.5 7.5 7.5 7.5-3.358 7.5-7.5-3.358-7.5-7.5-7.5z" fill="#fff5f5"/><path d="m250.5 290c-16.569 0-30-13.431-30-30 0-4.142 3.358-7.5 7.5-7.5h45c4.142 0 7.5 3.358 7.5 7.5 0 16.569-13.431 30-30 30z" fill="#fff5f5"/><path d="m258 289.055c-2.397.617-4.91.945-7.5.945-16.568 0-30-13.431-30-30 0-4.142 3.358-7.5 7.5-7.5h15c-4.142 0-7.5 3.358-7.5 7.5 0 13.979 9.561 25.724 22.5 29.055z" fill="#ececf1"/><path d="m149.644 90c20.176-24.43 50.698-40 84.856-40h32c34.159 0 34.159 80 0 80h-32c-34.159 0-64.681-15.57-84.856-40z" fill="#ffde91"/><path d="m351.356 90c-20.176 24.43-50.698 40-84.856 40h-32c-16.476 0-32.105-3.623-46.136-10.114 7.753-28.927 34.806-57.822 64.721-68.944 2.139-.795 3.031-3.313 1.837-5.257-2.805-4.564-4.422-9.936-4.422-15.685 0-16.569 13.431-30 30-30s30 13.431 30 30c0 9.452-4.371 17.883-11.202 23.381 8.176 3.696 31.918 15.182 32.702 15.202 8.043 5.67 13.102 13.844 19.356 21.417z" fill="#fcf2b6"/><path d="m236 232.803c-2.929-2.93-2.929-7.678 0-10.607 2.929-2.928 7.678-2.928 10.606 0 1.042 1.042 2.424 1.616 3.893 1.616s2.851-.574 3.893-1.616c2.929-2.928 7.678-2.928 10.606 0 2.929 2.93 2.929 7.678 0 10.607-3.875 3.875-9.024 6.009-14.5 6.009s-10.623-2.134-14.498-6.009z" fill="#e3a76f"/><path d="m309.5 490h-60c-2.761 0-5-2.239-5-5v-40c0-2.761 2.239-5 5-5h60c2.761 0 5 2.239 5 5v40c0 2.761-2.239 5-5 5z" fill="#fff5f5"/><path d="m244.5 480h70v12.556c-20.402 5.506-41.858 8.444-64 8.444-2.006 0-4.006-.024-6-.072z" fill="#ececf1"/><path d="m279.5 450c-4.142 0-7.5-3.358-7.5-7.5v-15c0-4.142 3.358-7.5 7.5-7.5 4.142 0 7.5 3.358 7.5 7.5v15c0 4.142-3.358 7.5-7.5 7.5z" fill="#24d3b5"/><path d="m289.5 450h-20c-2.761 0-5-2.239-5-5 0-2.761 2.239-5 5-5h20c2.761 0 5 2.239 5 5 0 2.761-2.239 5-5 5z" fill="#ececf1"/><path d="m234.5 365v135.486c-7.14-.46-14.197-1.226-21.158-2.285-2.965-.451-5.913-9.31-8.842-9.867-46.105-8.758-141.848-82.588-150-93.438v-29.896c0-8.284 6.716-15 15-15h150c8.284 0 15 6.716 15 15z" fill="#2b3894"/><path d="m213.342 498.199c-49.636-7.552-94.377-29.997-129.522-62.635-.782-.726-1.559-9.585-2.331-10.321-2.376-2.264-4.706-4.577-6.989-6.934v-48.309c0-2.761 2.239-5 5-5h130c2.761 0 5 2.239 5 5v125c0 1.217-.435 2.333-1.158 3.199z" fill="#3342ae"/><path d="m94.5 415.07c0 8.48-4.223 15.974-10.68 20.494-15.514-14.407-29.158-30.8-40.527-48.775l21.548-6.47c3.967-1.191 8.149 1.059 9.34 5.026.527 1.754.38 3.549-.289 5.11 11.713 2.076 20.608 12.306 20.608 24.615z" fill="#f2bb88"/><path d="m94.5 415.002v.068c0 8.48-4.223 15.974-10.68 20.494-5.339-4.958-10.457-10.152-15.336-15.564h11.016c5.628 0 10.821-1.86 15-4.998z" fill="#e3a76f"/><path d="m159.5 387.5h-40c-12.407 0-22.5-10.094-22.5-22.5v-20c0-12.406 10.093-22.5 22.5-22.5h40c12.407 0 22.5 10.094 22.5 22.5v20c0 12.406-10.093 22.5-22.5 22.5zm-40-50c-4.136 0-7.5 3.364-7.5 7.5v20c0 4.136 3.364 7.5 7.5 7.5h40c4.136 0 7.5-3.364 7.5-7.5v-20c0-4.136-3.364-7.5-7.5-7.5zm-55-37.5c0 4.142-3.358 7.5-7.5 7.5h-5v5c0 4.142-3.358 7.5-7.5 7.5s-7.5-3.358-7.5-7.5v-5h-5c-4.142 0-7.5-3.358-7.5-7.5s3.358-7.5 7.5-7.5h5v-5c0-4.142 3.358-7.5 7.5-7.5s7.5 3.358 7.5 7.5v5h5c4.142 0 7.5 3.358 7.5 7.5zm380 0c0 4.142-3.358 7.5-7.5 7.5h-5v5c0 4.142-3.358 7.5-7.5 7.5s-7.5-3.358-7.5-7.5v-5h-5c-4.142 0-7.5-3.358-7.5-7.5s3.358-7.5 7.5-7.5h5v-5c0-4.142 3.358-7.5 7.5-7.5s7.5 3.358 7.5 7.5v5h5c4.142 0 7.5 3.358 7.5 7.5zm-357.5-67.5h-5v-5c0-4.142-3.358-7.5-7.5-7.5s-7.5 3.358-7.5 7.5v5h-5c-4.142 0-7.5 3.358-7.5 7.5s3.358 7.5 7.5 7.5h5v5c0 4.142 3.358 7.5 7.5 7.5s7.5-3.358 7.5-7.5v-5h5c4.142 0 7.5-3.358 7.5-7.5s-3.358-7.5-7.5-7.5z" fill="#fff5f5"/></g></svg>