<svg height="512pt" viewBox="-30 0 512 512.001" width="512pt" xmlns="http://www.w3.org/2000/svg"><path d="m129.46875 221.09375c.140625-10.53125 8.726562-18.988281 19.257812-18.988281h.730469c10.640625 0 19.261719 8.621093 19.261719 19.261719v-43.117188c0-10.636719 8.625-19.261719 19.261719-19.261719h.589843c10.636719 0 19.261719 8.625 19.261719 19.261719v-12.726562c0-10.636719 8.621094-19.257813 19.257813-19.257813h.589844c10.636718 0 19.261718 8.621094 19.261718 19.257813v27.570312c0-10.636719 8.621094-19.261719 19.261719-19.261719 10.636719 0 19.261719 8.625 19.261719 19.261719v72.714844c0-11.015625 9.125-19.902344 20.230468-19.503906 10.578126.375 18.808594 9.390624 18.808594 19.972656v40.476562c0 20.835938-5.238281 41.402344-15.640625 59.453125-9.933593 17.246094-21.480469 28.367188-29.542969 34.730469-6.414062 5.0625-10.113281 12.816406-10.113281 20.988281v37.511719h-108.851562v-43.9375c0-6.320312-2.28125-12.398438-6.300781-17.269531-17.222657-20.875-22.898438-50.417969-24.375-76.683594-1.878907-33.375-.648438-66.9375-.210938-100.453125zm0 0" fill="#fed2a4"/><path d="m324.5 266.277344v40.476562c0 20.832032-5.234375 41.398438-15.636719 59.453125-9.9375 17.242188-21.476562 28.367188-29.542969 34.734375-6.417968 5.050782-10.117187 12.804688-10.117187 20.984375v37.511719h-15.300781v-42.597656c0-8.175782 3.699218-19.070313 10.117187-24.125 8.054688-6.363282 19.605469-17.492188 29.542969-34.734375 10.402344-18.050781 15.636719-38.621094 15.636719-59.453125v-32.25c0-8.132813-4.855469-15.335938-11.914063-18.40625 2.5625-1.113282 5.417969-1.671875 8.410156-1.570313 10.574219.378907 18.804688 9.390625 18.804688 19.976563zm0 0" fill="#ffbd86"/><path d="m142.988281 504.488281h142.472657v-38.191406c0-3.789063-3.070313-6.863281-6.863282-6.863281h-128.746094c-3.789062 0-6.863281 3.074218-6.863281 6.863281zm0 0" fill="#6fd6a2"/><path d="m285.460938 504.488281h-19.566407v-45.054687h12.703125c3.792969 0 6.863282 3.074218 6.863282 6.863281zm0 0" fill="#43cd8e"/><path d="m236.167969 13.46875 10.078125 20.421875c1.554687 3.152344 4.5625 5.335937 8.042968 5.84375l22.539063 3.273437c8.761719 1.273438 12.261719 12.046876 5.921875 18.226563l-16.308594 15.894531c-2.519531 2.457032-3.667968 5.992188-3.074218 9.460938l3.851562 22.445312c1.496094 8.726563-7.664062 15.382813-15.503906 11.261719l-20.15625-10.597656c-3.113282-1.632813-6.832032-1.632813-9.945313 0l-20.15625 10.597656c-7.839843 4.121094-17.003906-2.535156-15.503906-11.261719l3.847656-22.445312c.59375-3.46875-.554687-7.003906-3.070312-9.460938l-16.308594-15.894531c-6.34375-6.183594-2.84375-16.953125 5.921875-18.226563l22.535156-3.273437c3.480469-.507813 6.488282-2.691406 8.046875-5.84375l10.078125-20.421875c3.917969-7.941406 15.242188-7.941406 19.164063 0zm0 0" fill="#ffa812"/><path d="m266.4375 77.128906c-2.511719 2.457032-3.664062 5.988282-3.074219 9.457032l3.851563 22.453124c1.496094 8.71875-7.664063 15.382813-15.496094 11.261719l-.207031-.113281c2.167969-2.726562 3.289062-6.355469 2.609375-10.335938l-4.738282-27.601562c-.730468-4.261719.679688-8.617188 3.785157-11.636719l20.046875-19.542969c2.375-2.308593 3.628906-5.140624 3.917968-8.011718 8.542969 1.476562 11.878907 12.066406 5.617188 18.179687zm0 0" fill="#ff9a00"/><path d="m395.835938 81.417969 10.078124 20.421875c1.554688 3.152344 4.5625 5.339844 8.042969 5.84375l22.539063 3.277344c8.761718 1.273437 12.261718 12.042968 5.921875 18.222656l-16.308594 15.898437c-2.519531 2.453125-3.667969 5.992188-3.074219 9.457031l3.851563 22.445313c1.496093 8.730469-7.664063 15.386719-15.503907 11.265625l-20.15625-10.597656c-3.113281-1.636719-6.832031-1.636719-9.945312 0l-20.15625 10.597656c-7.839844 4.121094-17.003906-2.535156-15.503906-11.265625l3.847656-22.445313c.59375-3.464843-.554688-7.003906-3.070312-9.457031l-16.308594-15.898437c-6.34375-6.179688-2.84375-16.949219 5.921875-18.222656l22.535156-3.277344c3.480469-.503906 6.488281-2.691406 8.046875-5.84375l10.078125-20.421875c3.917969-7.941407 15.242187-7.941407 19.164063 0zm0 0" fill="#ffa812"/><path d="m426.109375 145.078125c-2.515625 2.457031-3.664063 5.992187-3.078125 9.460937l3.851562 22.449219c1.496094 8.722657-7.664062 15.386719-15.496093 11.265625l-.207031-.113281c2.167968-2.730469 3.292968-6.355469 2.609374-10.339844l-4.738281-27.601562c-.730469-4.261719.679688-8.617188 3.785157-11.636719l20.046874-19.542969c2.375-2.308593 3.628907-5.140625 3.917969-8.007812 8.542969 1.476562 11.878907 12.066406 5.617188 18.179687zm0 0" fill="#ff9a00"/><path d="m76.496094 81.417969 10.078125 20.421875c1.558593 3.152344 4.566406 5.339844 8.046875 5.84375l22.535156 3.277344c8.765625 1.273437 12.265625 12.042968 5.925781 18.222656l-16.308593 15.898437c-2.519532 2.453125-3.667969 5.992188-3.074219 9.457031l3.851562 22.445313c1.496094 8.730469-7.667969 15.386719-15.503906 11.265625l-20.160156-10.597656c-3.113281-1.636719-6.832031-1.636719-9.941407 0l-20.160156 10.597656c-7.839844 4.121094-17-2.535156-15.503906-11.265625l3.851562-22.445313c.59375-3.464843-.554687-7.003906-3.074218-9.457031l-16.304688-15.898437c-6.34375-6.179688-2.84375-16.949219 5.921875-18.222656l22.535157-3.277344c3.480468-.503906 6.488281-2.691406 8.046874-5.84375l10.078126-20.421875c3.917968-7.941407 15.242187-7.941407 19.160156 0zm0 0" fill="#ffa812"/><path d="m106.769531 145.078125c-2.511719 2.457031-3.664062 5.992187-3.074219 9.460937l3.851563 22.449219c1.496094 8.722657-7.664063 15.386719-15.496094 11.265625l-.207031-.113281c2.167969-2.730469 3.289062-6.355469 2.609375-10.339844l-4.738281-27.601562c-.730469-4.261719.679687-8.617188 3.785156-11.636719l20.046875-19.542969c2.375-2.308593 3.628906-5.140625 3.917969-8.007812 8.542968 1.476562 11.878906 12.066406 5.617187 18.179687zm0 0" fill="#ff9a00"/><path d="m175.304688 321.949219c-6.964844-8.03125-17.105469-13.175781-27.824219-13.175781-2.4375 0-4.875.234374-7.269531.703124-1.007813.199219-2.003907.4375-2.992188.71875-8.113281 2.320313-16.039062 7.664063-20.414062 14.976563-.972657 1.625-1.792969 3.335937-2.625 5.03125-.910157 1.847656-1.3125 4.671875-3.84375 4.804687-2.378907.125-3.234376-2.457031-4.027344-4.222656-2.316406-5.167968-5.425782-9.589844-9.789063-13.25-6.722656-5.636718-15.332031-8.761718-24.105469-8.761718-10.714843 0-20.855468 5.144531-27.820312 13.175781-15.851562 18.273437-8.492188 46.785156 5.140625 64.671875 13.742187 18.027344 34.945313 35.03125 56.855469 40.824218 2.203125.582032 4.511718.582032 6.714844 0 21.910156-5.792968 43.113281-22.796874 56.855468-40.824218 13.636719-17.886719 20.996094-46.398438 5.144532-64.671875zm0 0" fill="#e63950"/><path d="m170.15625 386.621094c-13.734375 18.027344-34.9375 35.03125-56.847656 40.828125-2.203125.578125-4.511719.578125-6.71875 0-1.707032-.449219-3.417969-.976563-5.121094-1.558594 20.058594-6.898437 39.066406-22.652344 51.738281-39.269531 13.628907-17.890625 20.992188-46.394532 5.144531-64.675782-5.144531-5.929687-12.019531-10.289062-19.578124-12.15625.480468-.109374.960937-.222656 1.441406-.3125 2.390625-.472656 4.835937-.707031 7.269531-.707031 10.714844 0 20.855469 5.144531 27.820313 13.183594 15.847656 18.273437 8.492187 46.777344-5.148438 64.667969zm0 0" fill="#cc2e43"/><path d="m181.484375 82.507812c.75.730469 1.089844 1.78125.914063 2.808594l-3.847657 22.449219c-1.183593 6.875 1.589844 13.695313 7.234375 17.796875 5.644532 4.097656 12.992188 4.628906 19.164063 1.382812l20.160156-10.597656c.921875-.484375 2.027344-.488281 2.953125 0l20.15625 10.597656c2.6875 1.414063 5.59375 2.109376 8.484375 2.109376 3.757813 0 7.492187-1.175782 10.679687-3.496094 5.644532-4.097656 8.417969-10.917969 7.238282-17.796875l-3.851563-22.445313c-.175781-1.03125.167969-2.078125.914063-2.808594l16.308594-15.894531c4.996093-4.871093 6.761718-12.019531 4.605468-18.652343-2.15625-6.636719-7.785156-11.382813-14.691406-12.386719l-22.535156-3.273438c-1.035156-.152343-1.925782-.800781-2.390625-1.738281l-10.078125-20.421875c-3.089844-6.253906-9.339844-10.140625-16.316406-10.140625-6.980469 0-13.230469 3.886719-16.320313 10.144531l-10.078125 20.421875c-.460938.9375-1.355469 1.585938-2.386719 1.734375l-22.539062 3.273438c-6.90625 1.003906-12.535157 5.75-14.6875 12.386719-2.15625 6.636718-.390625 13.78125 4.601562 18.652343zm-6.625-29.90625c.226563-.699218.863281-1.914062 2.5625-2.160156l22.535156-3.273437c5.929688-.863281 11.050781-4.582031 13.703125-9.953125l10.078125-20.421875c.761719-1.539063 2.109375-1.769531 2.847657-1.769531.734374 0 2.085937.230468 2.84375 1.769531l10.078124 20.421875c2.652344 5.371094 7.773438 9.089844 13.703126 9.953125l22.535156 3.273437c1.699218.246094 2.335937 1.460938 2.5625 2.160156.230468.703126.425781 2.054688-.800782 3.253907l-16.308593 15.898437c-4.289063 4.179688-6.246094 10.199219-5.234375 16.105469l3.851562 22.445313c.289063 1.691406-.667968 2.671874-1.261718 3.101562-.597657.4375-1.824219 1.042969-3.34375.242188l-20.160157-10.59375c-2.648437-1.394532-5.558593-2.09375-8.464843-2.09375-2.910157 0-5.820313.699218-8.46875 2.089843l-20.15625 10.597657c-1.519532.800781-2.746094.195312-3.34375-.242188-.597657-.429688-1.554688-1.410156-1.265626-3.101562l3.851563-22.445313c1.011719-5.90625-.941406-11.925781-5.230469-16.105469l-16.3125-15.898437c-1.226562-1.199219-1.027344-2.550781-.800781-3.253907zm0 0"/><path d="m447.660156 134.5625c4.996094-4.867188 6.761719-12.015625 4.605469-18.652344-2.15625-6.632812-7.785156-11.378906-14.691406-12.382812l-22.535157-3.273438c-1.035156-.152344-1.929687-.800781-2.390624-1.738281l-10.078126-20.421875c-3.089843-6.257812-9.339843-10.144531-16.316406-10.144531-6.976562 0-13.230468 3.886719-16.320312 10.144531l-1.835938 3.722656c-1.832031 3.71875-.304687 8.222656 3.414063 10.058594s8.222656.308594 10.058593-3.414062l1.835938-3.71875c.761719-1.539063 2.109375-1.769532 2.847656-1.769532.734375 0 2.085938.230469 2.84375 1.769532l10.082032 20.421874c2.648437 5.371094 7.769531 9.09375 13.699218 9.953126l22.535156 3.273437c1.699219.25 2.335938 1.460937 2.5625 2.164063.230469.699218.425782 2.054687-.800781 3.25l-16.308593 15.898437c-4.292969 4.179687-6.246094 10.199219-5.234376 16.105469l3.851563 22.445312c.289063 1.691406-.667969 2.671875-1.265625 3.105469-.59375.433594-1.820312 1.042969-3.339844.242187l-20.160156-10.597656c-5.300781-2.785156-11.628906-2.785156-16.933594 0l-20.15625 10.597656c-1.523437.796876-2.746094.1875-3.34375-.242187-.597656-.433594-1.554687-1.414063-1.265625-3.105469l3.851563-22.445312c1.011718-5.902344-.945313-11.925782-5.234375-16.105469l-16.304688-15.894531c-1.230469-1.199219-1.03125-2.554688-.804687-3.253906.226562-.703126.863281-1.914063 2.5625-2.160157l15.738281-2.289062c4.105469-.59375 6.949219-4.40625 6.355469-8.511719-.597656-4.105469-4.417969-6.953125-8.511719-6.355469l-15.742187 2.289063c-6.90625 1.003906-12.535157 5.75-14.6875 12.382812-2.15625 6.636719-.394532 13.78125 4.601562 18.652344l16.308594 15.898438c.75.726562 1.089844 1.777343.914062 2.808593l-3.847656 22.445313c-1.183594 6.875 1.59375 13.695312 7.238281 17.796875 3.1875 2.316406 6.921875 3.492187 10.675781 3.492187 2.894532 0 5.800782-.695312 8.484376-2.109375l20.160156-10.597656c.921875-.484375 2.03125-.484375 2.953125 0l20.15625 10.597656c6.175781 3.246094 13.519531 2.714844 19.164062-1.382812 5.644531-4.101563 8.417969-10.921875 7.238281-17.796875l-3.847656-22.449219c-.175781-1.027344.164063-2.078125.914063-2.808594zm0 0"/><path d="m45.28125 194.898438 20.15625-10.597657c.925781-.488281 2.03125-.488281 2.957031 0l20.15625 10.597657c2.6875 1.410156 5.59375 2.109374 8.484375 2.109374 3.757813 0 7.488282-1.179687 10.679688-3.496093 5.644531-4.101563 8.417968-10.917969 7.238281-17.796875l-3.851563-22.445313c-.175781-1.03125.167969-2.078125.914063-2.808593l16.308594-15.894532c4.996093-4.871094 6.761719-12.019531 4.601562-18.652344-2.15625-6.636718-7.78125-11.382812-14.6875-12.386718l-22.539062-3.273438c-1.03125-.152344-1.925781-.800781-2.386719-1.734375l-10.078125-20.421875c-3.089844-6.257812-9.339844-10.144531-16.316406-10.144531-6.976563 0-13.230469 3.886719-16.320313 10.144531l-10.078125 20.417969c-.460937.9375-1.355469 1.585937-2.390625 1.738281l-22.535156 3.273438c-6.90625 1.003906-12.535156 5.75-14.691406 12.382812-2.152344 6.636719-.390625 13.785156 4.605468 18.652344l16.308594 15.898438c.746094.726562 1.089844 1.777343.914063 2.808593l-3.851563 22.445313c-1.179687 6.878906 1.59375 13.695312 7.238282 17.796875 5.648437 4.101562 12.988281 4.632812 19.164062 1.386719zm-10.332031-13.539063c-.597657-.433594-1.554688-1.414063-1.265625-3.105469l3.851562-22.445312c1.011719-5.90625-.941406-11.925782-5.230468-16.105469l-16.3125-15.898437c-1.226563-1.199219-1.027344-2.550782-.800782-3.253907.226563-.699219.863282-1.914062 2.5625-2.160156l22.535156-3.273437c5.929688-.863282 11.050782-4.582032 13.703126-9.953126l10.078124-20.421874c.761719-1.542969 2.109376-1.769532 2.847657-1.769532.734375 0 2.085937.226563 2.84375 1.769532l10.082031 20.421874c2.648438 5.371094 7.769531 9.089844 13.699219 9.953126l22.535156 3.273437c1.699219.25 2.335937 1.460937 2.5625 2.164063.226563.699218.425781 2.054687-.800781 3.25l-16.308594 15.898437c-4.289062 4.179687-6.246094 10.199219-5.234375 16.105469l3.851563 22.445312c.289062 1.691406-.667969 2.671875-1.265626 3.105469-.59375.433594-1.820312 1.042969-3.339843.242187l-20.160157-10.597656c-5.300781-2.785156-11.628906-2.785156-16.933593 0l-20.15625 10.597656c-1.523438.796876-2.75.1875-3.34375-.242187zm0 0"/><path d="m305.960938 238.796875c-4.59375-.164063-9.015626.800781-12.988282 2.777344v-48.480469c0-14.761719-12.007812-26.773438-26.769531-26.773438-4.214844 0-8.203125.984376-11.75 2.726563v-3.523437c0-14.761719-12.011719-26.769532-26.773437-26.769532h-.585938c-11.148438 0-20.71875 6.847656-24.742188 16.554688-4.03125-2.429688-8.746093-3.828125-13.78125-3.828125h-.589843c-14.761719 0-26.769531 12.007812-26.769531 26.769531v19.066406c-3.550782-1.738281-7.539063-2.722656-11.75-2.722656h-.734376c-14.566406 0-26.574218 11.847656-26.765624 26.402344-.085938 6.792968-.210938 13.585937-.332032 20.378906-.398437 22.320312-.789062 45.277344.007813 68.078125-4.644531 3.261719-8.5625 7.324219-11.277344 11.867187-.101563.171876-.203125.34375-.304687.519532-2.410157-3.867188-5.285157-7.191406-8.703126-10.054688-8.085937-6.785156-18.363281-10.523437-28.933593-10.523437-12.597657 0-24.804688 5.746093-33.496094 15.765625-18.054687 20.820312-11.230469 53.058594 4.84375 74.148437 16.394531 21.507813 39.164063 37.785157 60.910156 43.535157 1.726563.453124 3.5.683593 5.273438.683593 1.777343 0 3.554687-.230469 5.277343-.683593 12.671876-3.351563 25.6875-10.28125 37.589844-19.734376.007813.175782.03125.347657.03125.523438v36.425781h-2.996094c-7.925781 0-14.371093 6.445313-14.371093 14.375v38.1875c0 4.148438 3.359375 7.511719 7.507812 7.511719h142.476563c4.148437 0 7.511718-3.363281 7.511718-7.511719v-38.1875c0-7.929687-6.449218-14.375-14.375-14.375h-1.882812v-30c0-5.953125 2.644531-11.453125 7.257812-15.089843.648438-.515626 1.320313-1.058594 2.007813-1.628907.039063-.027343.074219-.058593.109375-.089843 19.757812-17.015626 32.902344-36.695313 40.179688-60.164063 3.808593-12.273437 5.742187-25.128906 5.742187-38.199219v-40.476562c-.003906-14.890625-11.445313-26.964844-26.054687-27.480469zm-28.011719 228.148437v30.03125h-127.449219v-30.03125zm39.039062-160.191406c0 11.558594-1.703125 22.914063-5.0625 33.746094-6.503906 20.964844-17.8125 37.863281-35.582031 53.1875-.574219.472656-1.132812.921875-1.675781 1.351562-8.246094 6.507813-12.972657 16.304688-12.972657 26.886719v30h-93.828124v-36.425781c0-4.140625-.789063-8.242188-2.257813-12.113281 3.722656-3.835938 7.25-7.917969 10.527344-12.210938 1.992187-2.617187 3.855469-5.429687 5.542969-8.359375 2.070312-3.597656.832031-8.1875-2.765626-10.257812-3.59375-2.066406-8.1875-.828125-10.253906 2.765625-1.363281 2.375-2.871094 4.644531-4.472656 6.746093-14.222656 18.65625-34.453125 33.265626-52.800781 38.117188-.941407.246094-1.933594.246094-2.871094 0-18.347656-4.851562-38.582031-19.460938-52.804687-38.117188-16.371094-21.484374-15.128907-44.03125-5.441407-55.199218 5.75-6.628906 14.027344-10.585938 22.148438-10.585938 7.042969 0 13.890625 2.488282 19.277343 7.007813 3.257813 2.730469 5.796876 6.191406 7.765626 10.570312l.191406.441407c2.46875 5.703124 6.191406 8.453124 11.078125 8.207031 1.691406-.089844 6.835937-.363281 9.90625-8.285157.09375-.246093.179687-.492187.28125-.707031l.25-.503906c.703125-1.4375 1.367187-2.792969 2.085937-3.988281 3.125-5.226563 9.265625-9.675782 16.03125-11.609375.777344-.222657 1.578125-.414063 2.375-.570313 1.902344-.375 3.859375-.5625 5.824219-.5625 8.117187 0 16.398437 3.957032 22.148437 10.585938 4.433594 5.113281 6.824219 11.539062 7.097657 19.09375.152343 4.144531 3.65625 7.382812 7.78125 7.234375 4.144531-.152344 7.382812-3.636719 7.230469-7.78125-.398438-10.914063-4.121094-20.730469-10.761719-28.386719-8.691407-10.019531-20.902344-15.765625-33.496094-15.765625-2.933594 0-5.867187.28125-8.722656.84375-.777344.152344-1.554688.335937-2.324219.53125-.515625-20.375-.148438-40.949219.210938-60.996094.121093-6.816406.242187-13.632812.332031-20.449219.085937-6.382812 5.355469-11.578124 11.746093-11.578124h.730469c6.480469 0 11.75 5.269531 11.75 11.75v57.78125c0 1.558593.472657 3.003906 1.285157 4.203124 1.863281 2.757813 5.339843 3.945313 8.460937 2.972657 3.085937-.960938 5.277344-3.957031 5.277344-7.171875v-100.902344c0-6.480469 5.269531-11.75 11.75-11.75h.589843c6.480469 0 11.75 5.269531 11.75 11.75v100.898438c0 4.148437 3.363282 7.511718 7.511719 7.511718 4.148438 0 7.511719-3.363281 7.511719-7.511718v-113.625c0-6.476563 5.269531-11.75 11.75-11.75h.585938c6.480468 0 11.75 5.273437 11.75 11.75v113.625c0 4.148437 3.363281 7.511718 7.511718 7.511718 4.148438 0 7.511719-3.363281 7.511719-7.511718v-86.054688c0-6.480469 5.269531-11.75 11.75-11.75s11.75 5.269531 11.75 11.75v119.066406c0 2.707032-1.515625 5.164063-3.960937 6.40625-10.3125 5.253906-24.777344 14.289063-35.125 27.511719-2.558594 3.265625-1.980469 7.988281 1.285156 10.542969 1.375 1.074218 3.003906 1.597656 4.625 1.597656 2.230468 0 4.4375-.992188 5.917968-2.882812 9.113282-11.640626 22.78125-19.648438 30.117188-23.382813 7.5-3.820313 12.164062-11.40625 12.164062-19.792969v-46.351562c0-3.289063 1.300782-6.359375 3.667969-8.644532 2.367188-2.28125 5.515625-3.464843 8.785157-3.355468 6.375.226562 11.5625 5.820312 11.5625 12.46875v40.476562zm0 0"/></svg>