<svg width="477" height="350" viewBox="0 0 477 350" fill="none" xmlns="http://www.w3.org/2000/svg">
<mask id="mask0" mask-type="alpha" maskUnits="userSpaceOnUse" x="125" y="0" width="228" height="350">
<path d="M239 0L125 73.7683V276.076L239 349.844L353 276.076V73.7683L239 0Z" fill="#999B9C"/>
<path d="M353 73.7719V276.073L239 349.843V0.00201416L353 73.7719Z" fill="#292E30"/>
<path d="M166.422 95.7093L125 73.7683L239 0V48.7442L166.422 95.7093Z" fill="#747879"/>
<path d="M311.578 95.7093L353 73.7683L239 0V48.7442L311.578 95.7093Z" fill="#4F5354"/>
<path d="M311.578 254.135L353 276.076L239 349.844V301.1L311.578 254.135Z" fill="#4F5354"/>
<path d="M166.422 254.135L125 276.076L239 349.844V301.1L166.422 254.135Z" fill="#747879"/>
<path d="M239 48.7442L166.422 95.7093V254.135L239 301.1L311.578 254.135V95.7093L239 48.7442Z" fill="#D2D4D4"/>
<path d="M311.58 95.7117V254.132L239 301.098V48.7458L311.58 95.7117Z" fill="#BFC0C1"/>
</mask>
<g mask="url(#mask0)">
<path d="M239 0L125 73.7683V276.076L239 349.844L353 276.076V73.7683L239 0Z" fill="#BFC0C1"/>
<path d="M353 73.7719V276.073L239 349.843V0.00201416L353 73.7719Z" fill="#4F5354"/>
<path d="M166.422 95.7093L125 73.7683L239 0V48.7442L166.422 95.7093Z" fill="#999B9C"/>
<path d="M311.578 95.7093L353 73.7683L239 0V48.7442L311.578 95.7093Z" fill="#747879"/>
<path d="M311.578 254.135L353 276.076L239 349.844V301.1L311.578 254.135Z" fill="#747879"/>
<path d="M166.422 254.135L125 276.076L239 349.844V301.1L166.422 254.135Z" fill="#999B9C"/>
<path d="M239 48.7442L166.422 95.7093V254.135L239 301.1L311.578 254.135V95.7093L239 48.7442Z" fill="#DBDCDC"/>
<path d="M311.58 95.7117V254.132L239 301.098V48.7458L311.58 95.7117Z" fill="#D2D4D4"/>
<rect x="125" y="1.62399" width="228" height="348.347" fill="#4ABEFF" style="mix-blend-mode:color"/>
<path d="M194.241 40L202.285 60.197L222.482 68.242L202.285 76.286L194.241 96.483L186.196 76.286L166 68.242L186.196 60.197L194.241 40Z" fill="white"/>
<path d="M292 249L296.842 261.158L309 266L296.842 270.842L292 283L287.157 270.842L275 266L287.157 261.158L292 249Z" fill="white"/>
</g>
</svg>
