<svg width="477" height="350" viewBox="0 0 477 350" fill="none" xmlns="http://www.w3.org/2000/svg">
<mask id="mask0" mask-type="alpha" maskUnits="userSpaceOnUse" x="130" y="201" width="218" height="149">
<path d="M130.205 275.779L176.002 201.558L301.598 201.558L347.394 275.779L301.598 350H176.002L130.205 275.779Z" fill="#999B9C"/>
<path d="M176.004 350L301.596 350L347.394 275.779L130.206 275.779L176.004 350Z" fill="#292E30"/>
<path d="M189.623 228.527L176.002 201.558L130.205 275.779H160.466L189.623 228.527Z" fill="#747879"/>
<path d="M189.623 323.032L176.002 350L130.205 275.779H160.466L189.623 323.032Z" fill="#4F5354"/>
<path d="M287.976 323.032L301.598 350L347.394 275.779H317.133L287.976 323.032Z" fill="#4F5354"/>
<path d="M287.976 228.527L301.598 201.558L347.394 275.779H317.133L287.976 228.527Z" fill="#747879"/>
<path d="M160.466 275.779L189.623 228.527L287.976 228.527L317.133 275.779L287.976 323.032H189.623L160.466 275.779Z" fill="#D2D4D4"/>
<path d="M189.624 323.033H287.975L317.132 275.779L160.467 275.779L189.624 323.033Z" fill="#BFC0C1"/>
</mask>
<g mask="url(#mask0)">
<path d="M130.205 275.779L176.002 201.558L301.598 201.558L347.394 275.779L301.598 350H176.002L130.205 275.779Z" fill="#BFC0C1"/>
<path d="M176.004 350L301.596 350L347.394 275.779L130.206 275.779L176.004 350Z" fill="#4F5354"/>
<path d="M189.623 228.527L176.002 201.558L130.205 275.779H160.466L189.623 228.527Z" fill="#999B9C"/>
<path d="M189.623 323.032L176.002 350L130.205 275.779H160.466L189.623 323.032Z" fill="#747879"/>
<path d="M287.976 323.032L301.598 350L347.394 275.779H317.133L287.976 323.032Z" fill="#747879"/>
<path d="M287.976 228.527L301.598 201.558L347.394 275.779H317.133L287.976 228.527Z" fill="#999B9C"/>
<path d="M160.466 275.779L189.623 228.527L287.976 228.527L317.133 275.779L287.976 323.032H189.623L160.466 275.779Z" fill="#DBDCDC"/>
<path d="M189.624 323.033H287.975L317.132 275.779L160.467 275.779L189.624 323.033Z" fill="#D2D4D4"/>
<rect width="148.442" height="216.26" transform="matrix(0 1 1 0 131.213 201.558)" fill="#C54AFF" style="mix-blend-mode:color"/>
</g>
<mask id="mask1" mask-type="alpha" maskUnits="userSpaceOnUse" x="130" y="0" width="218" height="149">
<path d="M130.205 74.2208L176.002 148.442L301.598 148.442L347.394 74.2208L301.598 6.19888e-06L176.002 6.19888e-06L130.205 74.2208Z" fill="#999B9C"/>
<path d="M176.004 -2.74181e-05L301.596 -2.74181e-05L347.394 74.2208L130.206 74.2208L176.004 -2.74181e-05Z" fill="#292E30"/>
<path d="M189.623 121.473L176.002 148.442L130.205 74.2208H160.466L189.623 121.473Z" fill="#747879"/>
<path d="M189.623 26.9682L176.002 -2.74181e-05L130.205 74.2208H160.466L189.623 26.9682Z" fill="#4F5354"/>
<path d="M287.976 26.9681L301.598 -5.79357e-05L347.394 74.2207L317.133 74.2207L287.976 26.9681Z" fill="#4F5354"/>
<path d="M287.976 121.473L301.598 148.442L347.394 74.2207L317.133 74.2207L287.976 121.473Z" fill="#747879"/>
<path d="M160.466 74.2207L189.623 121.473L287.976 121.473L317.133 74.2207L287.976 26.9681L189.623 26.9681L160.466 74.2207Z" fill="#D2D4D4"/>
<path d="M189.624 26.9669L287.975 26.9669L317.132 74.2208L160.467 74.2208L189.624 26.9669Z" fill="#BFC0C1"/>
</mask>
<g mask="url(#mask1)">
<path d="M130.205 74.2208L176.002 148.442L301.598 148.442L347.394 74.2208L301.598 6.19888e-06L176.002 6.19888e-06L130.205 74.2208Z" fill="#BFC0C1"/>
<path d="M176.004 -2.74181e-05L301.596 -2.74181e-05L347.394 74.2208L130.206 74.2208L176.004 -2.74181e-05Z" fill="#4F5354"/>
<path d="M189.623 121.473L176.002 148.442L130.205 74.2208H160.466L189.623 121.473Z" fill="#999B9C"/>
<path d="M189.623 26.9682L176.002 -2.74181e-05L130.205 74.2208H160.466L189.623 26.9682Z" fill="#747879"/>
<path d="M287.976 26.9681L301.598 -5.79357e-05L347.394 74.2207L317.133 74.2207L287.976 26.9681Z" fill="#747879"/>
<path d="M287.976 121.473L301.598 148.442L347.394 74.2207L317.133 74.2207L287.976 121.473Z" fill="#999B9C"/>
<path d="M160.466 74.2207L189.623 121.473L287.976 121.473L317.133 74.2207L287.976 26.9681L189.623 26.9681L160.466 74.2207Z" fill="#DBDCDC"/>
<path d="M189.624 26.9669L287.975 26.9669L317.132 74.2208L160.467 74.2208L189.624 26.9669Z" fill="#D2D4D4"/>
<rect x="131.213" y="148.442" width="148.442" height="216.26" transform="rotate(-90 131.213 148.442)" fill="#C54AFF" style="mix-blend-mode:color"/>
</g>
<path d="M238.998 51.0066L245.615 67.6224L262.231 74.241L245.615 80.8587L238.998 97.4745L232.379 80.8587L215.764 74.241L232.379 67.6224L238.998 51.0066Z" fill="white"/>
<mask id="mask2" mask-type="alpha" maskUnits="userSpaceOnUse" x="43" y="70" width="137" height="210">
<path d="M111.051 70.7511L43 114.786V235.55L111.051 279.585L179.101 235.55V114.786L111.051 70.7511Z" fill="#999B9C"/>
<path d="M179.101 114.788V235.549L111.051 279.585V70.7523L179.101 114.788Z" fill="#292E30"/>
<path d="M67.7263 127.883L43 114.786L111.051 70.7511V99.8482L67.7263 127.883Z" fill="#747879"/>
<path d="M154.375 127.883L179.101 114.786L111.051 70.7511V99.8483L154.375 127.883Z" fill="#4F5354"/>
<path d="M154.375 222.453L179.101 235.55L111.051 279.585V250.488L154.375 222.453Z" fill="#4F5354"/>
<path d="M67.7263 222.453L43 235.55L111.051 279.585V250.488L67.7263 222.453Z" fill="#747879"/>
<path d="M111.051 99.8483L67.7263 127.883V222.453L111.051 250.488L154.375 222.453V127.883L111.051 99.8483Z" fill="#D2D4D4"/>
<path d="M154.376 127.885V222.452L111.051 250.487V99.8492L154.376 127.885Z" fill="#BFC0C1"/>
</mask>
<g mask="url(#mask2)">
<path d="M111.051 70.7511L43 114.786V235.55L111.051 279.585L179.101 235.55V114.786L111.051 70.7511Z" fill="#BFC0C1"/>
<path d="M179.101 114.788V235.549L111.051 279.585V70.7523L179.101 114.788Z" fill="#4F5354"/>
<path d="M67.7263 127.883L43 114.786L111.051 70.7511V99.8482L67.7263 127.883Z" fill="#999B9C"/>
<path d="M154.375 127.883L179.101 114.786L111.051 70.7511V99.8483L154.375 127.883Z" fill="#747879"/>
<path d="M154.375 222.453L179.101 235.55L111.051 279.585V250.488L154.375 222.453Z" fill="#747879"/>
<path d="M67.7263 222.453L43 235.55L111.051 279.585V250.488L67.7263 222.453Z" fill="#999B9C"/>
<path d="M111.051 99.8483L67.7263 127.883V222.453L111.051 250.488L154.375 222.453V127.883L111.051 99.8483Z" fill="#DBDCDC"/>
<path d="M154.376 127.885V222.452L111.051 250.487V99.8492L154.376 127.885Z" fill="#D2D4D4"/>
<rect x="43" y="71.7205" width="136.101" height="207.94" fill="#FF4A4A" style="mix-blend-mode:color"/>
<path d="M67.6807 181.814L70.9613 190.051L79.1983 193.331L70.9613 196.612L67.6807 204.849L64.4001 196.612L56.1631 193.331L64.4001 190.051L67.6807 181.814Z" fill="white"/>
</g>
<mask id="mask3" mask-type="alpha" maskUnits="userSpaceOnUse" x="298" y="70" width="137" height="210">
<path d="M366.906 70.7511L298.856 114.786V235.55L366.906 279.585L434.957 235.55V114.786L366.906 70.7511Z" fill="#999B9C"/>
<path d="M434.957 114.788V235.549L366.906 279.585V70.7523L434.957 114.788Z" fill="#292E30"/>
<path d="M323.582 127.883L298.856 114.786L366.906 70.7511V99.8482L323.582 127.883Z" fill="#747879"/>
<path d="M410.231 127.883L434.957 114.786L366.906 70.7511V99.8483L410.231 127.883Z" fill="#4F5354"/>
<path d="M410.231 222.453L434.957 235.55L366.906 279.585V250.488L410.231 222.453Z" fill="#4F5354"/>
<path d="M323.582 222.453L298.856 235.55L366.906 279.585V250.488L323.582 222.453Z" fill="#747879"/>
<path d="M366.907 99.8483L323.582 127.883V222.453L366.907 250.488L410.231 222.453V127.883L366.907 99.8483Z" fill="#D2D4D4"/>
<path d="M410.232 127.885V222.452L366.906 250.487V99.8492L410.232 127.885Z" fill="#BFC0C1"/>
</mask>
<g mask="url(#mask3)">
<path d="M366.906 70.7511L298.856 114.786V235.55L366.906 279.585L434.957 235.55V114.786L366.906 70.7511Z" fill="#BFC0C1"/>
<path d="M434.957 114.788V235.549L366.906 279.585V70.7523L434.957 114.788Z" fill="#4F5354"/>
<path d="M323.582 127.883L298.856 114.786L366.906 70.7511V99.8482L323.582 127.883Z" fill="#999B9C"/>
<path d="M410.231 127.883L434.957 114.786L366.906 70.7511V99.8483L410.231 127.883Z" fill="#747879"/>
<path d="M410.231 222.453L434.957 235.55L366.906 279.585V250.488L410.231 222.453Z" fill="#747879"/>
<path d="M323.582 222.453L298.856 235.55L366.906 279.585V250.488L323.582 222.453Z" fill="#999B9C"/>
<path d="M366.907 99.8483L323.582 127.883V222.453L366.907 250.488L410.231 222.453V127.883L366.907 99.8483Z" fill="#DBDCDC"/>
<path d="M410.232 127.885V222.452L366.906 250.487V99.8492L410.232 127.885Z" fill="#D2D4D4"/>
<rect x="298.856" y="71.7205" width="136.101" height="207.94" fill="#84FF4A" style="mix-blend-mode:color"/>
<path d="M398.401 110.24L401.682 118.477L409.919 121.758L401.682 125.039L398.401 133.275L395.12 125.039L386.883 121.758L395.12 118.477L398.401 110.24Z" fill="white"/>
</g>
<mask id="mask4" mask-type="alpha" maskUnits="userSpaceOnUse" x="145" y="31" width="188" height="289">
<path d="M238.8 31.2621L145.013 91.9504V258.386L238.8 319.074L332.586 258.386V91.9504L238.8 31.2621Z" fill="#999B9C"/>
<path d="M332.586 91.9534V258.384L238.8 319.073V31.2638L332.586 91.9534Z" fill="#292E30"/>
<path d="M179.091 110.001L145.013 91.9504L238.8 31.2621V71.3633L179.091 110.001Z" fill="#747879"/>
<path d="M298.509 110.001L332.586 91.9504L238.8 31.2621V71.3634L298.509 110.001Z" fill="#4F5354"/>
<path d="M298.509 240.336L332.586 258.386L238.8 319.074V278.973L298.509 240.336Z" fill="#4F5354"/>
<path d="M179.091 240.336L145.013 258.386L238.8 319.074V278.973L179.091 240.336Z" fill="#747879"/>
<path d="M238.8 71.3634L179.091 110.001V240.336L238.8 278.973L298.509 240.336V110.001L238.8 71.3634Z" fill="#D2D4D4"/>
<path d="M298.51 110.003V240.334L238.8 278.972V71.3647L298.51 110.003Z" fill="#BFC0C1"/>
</mask>
<g mask="url(#mask4)">
<path d="M238.8 31.2621L145.013 91.9504V258.386L238.8 319.074L332.586 258.386V91.9504L238.8 31.2621Z" fill="#BFC0C1"/>
<path d="M332.586 91.9534V258.384L238.8 319.073V31.2638L332.586 91.9534Z" fill="#4F5354"/>
<path d="M179.091 110.001L145.013 91.9504L238.8 31.2621V71.3633L179.091 110.001Z" fill="#999B9C"/>
<path d="M298.509 110.001L332.586 91.9504L238.8 31.2621V71.3634L298.509 110.001Z" fill="#747879"/>
<path d="M298.509 240.336L332.586 258.386L238.8 319.074V278.973L298.509 240.336Z" fill="#747879"/>
<path d="M179.091 240.336L145.013 258.386L238.8 319.074V278.973L179.091 240.336Z" fill="#999B9C"/>
<path d="M238.8 71.3634L179.091 110.001V240.336L238.8 278.973L298.509 240.336V110.001L238.8 71.3634Z" fill="#DBDCDC"/>
<path d="M298.51 110.003V240.334L238.8 278.972V71.3647L298.51 110.003Z" fill="#D2D4D4"/>
<rect x="145.013" y="32.5982" width="187.573" height="286.58" fill="#4ABEFF" style="mix-blend-mode:color"/>
<path d="M201.977 64.1696L208.595 80.7854L225.21 87.404L208.595 94.0217L201.977 110.637L195.358 94.0217L178.743 87.404L195.358 80.7854L201.977 64.1696Z" fill="white"/>
<path d="M282.402 236.111L286.386 246.113L296.388 250.097L286.386 254.081L282.402 264.083L278.418 254.081L268.416 250.097L278.418 246.113L282.402 236.111Z" fill="white"/>
</g>
</svg>
