<svg width="477" height="350" viewBox="0 0 477 350" fill="none" xmlns="http://www.w3.org/2000/svg">
<g clip-path="url(#clip0)">
<mask id="mask0" mask-type="alpha" maskUnits="userSpaceOnUse" x="1" y="48" width="166" height="254">
<path d="M83.7175 48L1 101.526V248.318L83.7175 301.844L166.435 248.318V101.526L83.7175 48Z" fill="#999B9C"/>
<path d="M166.435 101.528V248.316L83.7175 301.843V48.0015L166.435 101.528Z" fill="#292E30"/>
<path d="M31.0555 117.446L1 101.526L83.7175 48V83.3684L31.0555 117.446Z" fill="#747879"/>
<path d="M136.38 117.446L166.435 101.526L83.7175 48V83.3684L136.38 117.446Z" fill="#4F5354"/>
<path d="M136.38 232.398L166.435 248.318L83.7175 301.844V266.476L136.38 232.398Z" fill="#4F5354"/>
<path d="M31.0555 232.398L1 248.318L83.7175 301.844V266.476L31.0555 232.398Z" fill="#747879"/>
<path d="M83.7175 83.3684L31.0555 117.446V232.398L83.7175 266.476L136.38 232.398V117.446L83.7175 83.3684Z" fill="#D2D4D4"/>
<path d="M136.381 117.448V232.396L83.7175 266.474V83.3696L136.381 117.448Z" fill="#BFC0C1"/>
</mask>
<g mask="url(#mask0)">
<path d="M83.7175 48L1 101.526V248.318L83.7175 301.844L166.435 248.318V101.526L83.7175 48Z" fill="#BFC0C1"/>
<path d="M166.435 101.528V248.316L83.7175 301.843V48.0015L166.435 101.528Z" fill="#4F5354"/>
<path d="M31.0555 117.446L1 101.526L83.7175 48V83.3684L31.0555 117.446Z" fill="#999B9C"/>
<path d="M136.38 117.446L166.435 101.526L83.7175 48V83.3684L136.38 117.446Z" fill="#747879"/>
<path d="M136.38 232.398L166.435 248.318L83.7175 301.844V266.476L136.38 232.398Z" fill="#747879"/>
<path d="M31.0555 232.398L1 248.318L83.7175 301.844V266.476L31.0555 232.398Z" fill="#999B9C"/>
<path d="M83.7175 83.3684L31.0555 117.446V232.398L83.7175 266.476L136.38 232.398V117.446L83.7175 83.3684Z" fill="#DBDCDC"/>
<path d="M136.381 117.448V232.396L83.7175 266.474V83.3696L136.381 117.448Z" fill="#D2D4D4"/>
<rect x="1" y="49.1784" width="165.435" height="252.758" fill="#FF4A4A" style="mix-blend-mode:color"/>
<path d="M31 183L34.9877 193.012L45 197L34.9877 200.988L31 211L27.0123 200.988L17 197L27.0123 193.012L31 183Z" fill="white"/>
</g>
<mask id="mask1" mask-type="alpha" maskUnits="userSpaceOnUse" x="312" y="48" width="166" height="254">
<path d="M394.717 48L312 101.526V248.318L394.717 301.844L477.435 248.318V101.526L394.717 48Z" fill="#999B9C"/>
<path d="M477.435 101.528V248.316L394.718 301.843V48.0015L477.435 101.528Z" fill="#292E30"/>
<path d="M342.055 117.446L312 101.526L394.717 48V83.3684L342.055 117.446Z" fill="#747879"/>
<path d="M447.38 117.446L477.435 101.526L394.718 48V83.3684L447.38 117.446Z" fill="#4F5354"/>
<path d="M447.38 232.398L477.435 248.318L394.718 301.844V266.476L447.38 232.398Z" fill="#4F5354"/>
<path d="M342.055 232.398L312 248.318L394.717 301.844V266.476L342.055 232.398Z" fill="#747879"/>
<path d="M394.718 83.3684L342.056 117.446V232.398L394.718 266.476L447.38 232.398V117.446L394.718 83.3684Z" fill="#D2D4D4"/>
<path d="M447.381 117.448V232.396L394.718 266.474V83.3696L447.381 117.448Z" fill="#BFC0C1"/>
</mask>
<g mask="url(#mask1)">
<path d="M394.717 48L312 101.526V248.318L394.717 301.844L477.435 248.318V101.526L394.717 48Z" fill="#BFC0C1"/>
<path d="M477.435 101.528V248.316L394.718 301.843V48.0015L477.435 101.528Z" fill="#4F5354"/>
<path d="M342.055 117.446L312 101.526L394.717 48V83.3684L342.055 117.446Z" fill="#999B9C"/>
<path d="M447.38 117.446L477.435 101.526L394.718 48V83.3684L447.38 117.446Z" fill="#747879"/>
<path d="M447.38 232.398L477.435 248.318L394.718 301.844V266.476L447.38 232.398Z" fill="#747879"/>
<path d="M342.055 232.398L312 248.318L394.717 301.844V266.476L342.055 232.398Z" fill="#999B9C"/>
<path d="M394.718 83.3684L342.056 117.446V232.398L394.718 266.476L447.38 232.398V117.446L394.718 83.3684Z" fill="#DBDCDC"/>
<path d="M447.381 117.448V232.396L394.718 266.474V83.3696L447.381 117.448Z" fill="#D2D4D4"/>
<rect x="312" y="49.1784" width="165.435" height="252.758" fill="#84FF4A" style="mix-blend-mode:color"/>
<path d="M433 96L436.988 106.012L447 110L436.988 113.988L433 124L429.012 113.988L419 110L429.012 106.012L433 96Z" fill="white"/>
</g>
<mask id="mask2" mask-type="alpha" maskUnits="userSpaceOnUse" x="125" y="0" width="228" height="350">
<path d="M239 0L125 73.7683V276.076L239 349.844L353 276.076V73.7683L239 0Z" fill="#999B9C"/>
<path d="M353 73.7719V276.073L239 349.843V0.00201416L353 73.7719Z" fill="#292E30"/>
<path d="M166.422 95.7093L125 73.7683L239 0V48.7442L166.422 95.7093Z" fill="#747879"/>
<path d="M311.578 95.7093L353 73.7683L239 0V48.7442L311.578 95.7093Z" fill="#4F5354"/>
<path d="M311.578 254.135L353 276.076L239 349.844V301.1L311.578 254.135Z" fill="#4F5354"/>
<path d="M166.422 254.135L125 276.076L239 349.844V301.1L166.422 254.135Z" fill="#747879"/>
<path d="M239 48.7442L166.422 95.7093V254.135L239 301.1L311.578 254.135V95.7093L239 48.7442Z" fill="#D2D4D4"/>
<path d="M311.58 95.7117V254.132L239 301.098V48.7458L311.58 95.7117Z" fill="#BFC0C1"/>
</mask>
<g mask="url(#mask2)">
<path d="M239 0L125 73.7683V276.076L239 349.844L353 276.076V73.7683L239 0Z" fill="#BFC0C1"/>
<path d="M353 73.7719V276.073L239 349.843V0.00201416L353 73.7719Z" fill="#4F5354"/>
<path d="M166.422 95.7093L125 73.7683L239 0V48.7442L166.422 95.7093Z" fill="#999B9C"/>
<path d="M311.578 95.7093L353 73.7683L239 0V48.7442L311.578 95.7093Z" fill="#747879"/>
<path d="M311.578 254.135L353 276.076L239 349.844V301.1L311.578 254.135Z" fill="#747879"/>
<path d="M166.422 254.135L125 276.076L239 349.844V301.1L166.422 254.135Z" fill="#999B9C"/>
<path d="M239 48.7442L166.422 95.7093V254.135L239 301.1L311.578 254.135V95.7093L239 48.7442Z" fill="#DBDCDC"/>
<path d="M311.58 95.7117V254.132L239 301.098V48.7458L311.58 95.7117Z" fill="#D2D4D4"/>
<rect x="125" y="1.62399" width="228" height="348.347" fill="#4ABEFF" style="mix-blend-mode:color"/>
<path d="M194.241 40L202.285 60.197L222.482 68.242L202.285 76.286L194.241 96.483L186.196 76.286L166 68.242L186.196 60.197L194.241 40Z" fill="white"/>
<path d="M292 249L296.842 261.158L309 266L296.842 270.842L292 283L287.157 270.842L275 266L287.157 261.158L292 249Z" fill="white"/>
</g>
</g>
<defs>
<clipPath id="clip0">
<rect width="477" height="350" fill="white"/>
</clipPath>
</defs>
</svg>
