<svg id="Layer_1" enable-background="new 0 0 512 512" height="512" viewBox="0 0 512 512" width="512" xmlns="http://www.w3.org/2000/svg"><g><path d="m43.324 311.286c5.374-7.729 12.686-12.077 20.314-12.077h384.722c7.628 0 14.941 4.348 20.314 12.077l20.85 29.991c7.446-23.43 11.477-48.383 11.477-74.28 0-135.311-109.691-245.002-245.002-245.002s-245.002 109.691-245.002 245.002c0 25.897 4.031 50.849 11.477 74.28z" fill="#9181f2"/><path d="m453.434 412.071.004.009c15.914-21.621 28.368-45.947 36.53-72.166l-21.292-30.628c-5.373-7.729-12.686-12.077-20.314-12.077h-384.723c-7.628 0-14.941 4.348-20.314 12.077l-21.292 30.628c31.038 99.702 124.049 172.086 233.967 172.086 48.217 0 93.178-13.931 131.084-37.984z" fill="#7255ce"/><path d="m63.639 297.209c-7.628 0-14.941 4.348-20.314 12.077l-21.292 30.628c24.757 79.524 88.943 141.667 169.686 163.563-9.563-19.52 9.956-32.451 9.956-32.451l53.008-85.775v-88.043h-191.044z" fill="#5c45bf"/><path d="m349.64 185.137c-6.875 3.977-12.736 8.546-16.121 11.475-15.604 13.504-39.506 13.522-55.131 0-3.385-2.93-9.246-7.498-16.121-11.475-1.086-.628-2.247-1.384-3.451-2.275 2.938-1.24 5.694-2.412 8.174-3.472 7.995-3.419 13.172-11.275 13.172-19.97v-10.56c2.314 1.653 4.252 3.216 5.629 4.408 11.417 9.88 28.899 9.887 40.324 0 1.377-1.192 3.316-2.755 5.629-4.408v10.56c0 8.695 5.178 16.551 13.172 19.97 2.48 1.06 5.236 2.233 8.174 3.472-1.203.891-2.363 1.647-3.45 2.275z" fill="#fcad6d"/><path d="m278.388 196.612c3.703 3.205 7.874 5.639 12.287 7.324 1.584-.684 2.586-.935 2.586-.935 12.844-12.844 13.601-32.668 13.094-42.329-7.36.093-14.748-2.372-20.563-7.404-1.377-1.192-3.316-2.755-5.629-4.408v10.56c0 8.695-5.178 16.551-13.172 19.97-2.48 1.06-5.236 2.233-8.174 3.472 1.204.891 2.365 1.646 3.451 2.275 6.875 3.977 12.735 8.545 16.12 11.475z" fill="#fd995b"/><path d="m351.394 24.848c-1.85-.785-3.421-2.097-4.583-3.737-6.384-9.004-30.827-36.261-78.749-9.937-32.331 17.76-29.643 56.041-25.691 75.841.58-.99 1.448-1.848 2.698-2.52 6.704-3.605 11.328.426 12.698.831.55-1.856.412-11.883 9.705-19.196 7.663-6.028 18.95-12.68 29.216-10.128 12.864 3.197 24.687 2.419 32.342 1.204 2.03-.326 3.961.989 4.389 2.99 2.262 10.58 9.021 18.37 19.546 22.53.247.097.451.307.559.575l.745 1.848c1.064-.308 5.705-4.207 12.311-.653 2.044 1.099 3.074 2.676 3.47 4.525 3.281-16.515 7.283-53.17-18.656-64.173z" fill="#2a428c"/><path d="m325.896 4.045c-13.035-5.682-32.029-7.046-57.834 7.129-32.331 17.76-29.643 56.041-25.691 75.841.58-.99 1.448-1.848 2.698-2.52 6.704-3.605 11.328.426 12.698.831.55-1.856.412-11.883 9.705-19.196 7.663-6.028 18.95-12.68 29.216-10.128 2.2.547 4.367.97 6.49 1.301-.28-.665-.577-1.334-.905-2.01-17.863-36.769 23.616-51.246 23.623-51.248z" fill="#1c2e7a"/><path d="m367.448 82.878c-5.294-2.849-9.81-1.568-12.586-.078 2.555 16.041 1.853 28.317-.481 37.643 12.519 2.213 13.14-11.975 14.31-16.053 1.243-4.332 7.612-16.748-1.243-21.512z" fill="#fcad6d"/><path d="m256.786 82.799c-2.777-1.49-7.292-2.77-12.586.078-8.855 4.764-2.486 17.18-1.243 21.512 1.17 4.078 1.791 18.266 14.31 16.053-2.334-9.325-3.036-21.602-.481-37.643z" fill="#fd995b"/><path d="m355.41 83.24c-.156-.999-.829-1.852-1.77-2.224-7.831-3.094-15.859-9.194-18.426-21.205-.633-2.96-3.484-4.895-6.473-4.42-6.735 1.071-18.659 2.047-31.611-1.172-10.828-2.691-22.452 3.904-30.793 10.467-5.124 4.032-8.616 9.827-9.727 16.251-.006.037-.013.075-.019.113-7.365 43.031 8.345 59.664 17.28 64.833 5.029 2.909 9.316 6.25 11.792 8.393 11.413 9.878 28.896 9.891 40.324 0 2.476-2.143 6.763-5.484 11.792-8.393 8.78-5.08 24.098-21.242 17.631-62.643z" fill="#f9ba8f"/><path d="m317.995 153.777c-2.476-2.287-6.763-5.854-11.792-8.959-8.935-5.518-24.645-23.273-17.28-69.205.007-.04.013-.08.019-.12 1.111-6.857 4.603-13.043 9.727-17.347 1.142-.959 2.348-1.918 3.603-2.854-1.69-.291-3.406-.642-5.143-1.073-10.828-2.691-22.452 3.904-30.793 10.467-5.124 4.032-8.616 9.826-9.727 16.251-.006.037-.013.075-.019.113-7.365 43.031 8.345 59.664 17.28 64.833 5.029 2.909 9.316 6.251 11.792 8.393 10.225 8.849 25.319 9.775 36.569 2.761-1.481-.944-2.901-2.027-4.236-3.26z" fill="#fcad6d"/><path d="m392.786 349.729-10.016 24.653 15.938 9.656c6.345-5.447 15.193-7.418 23.476-4.825l9.196-20.006c2.675-5.82 3.369-12.356 1.977-18.607l-15.061-67.601c-.416.183-.855.328-1.313.433l-29.057 6.6c-5.475 1.244-9.36 6.11-9.36 11.724l-.578 7.341 14.989 44.05c.73 2.146.662 4.483-.191 6.582z" fill="#fcad6d"/><path d="m415.193 335.869-17.482-57.089-.832-.965-8.954 2.217c-5.475 1.243-9.36 6.11-9.36 11.724l-.578 7.341 14.989 44.05c.73 2.146.662 4.482-.191 6.582l-10.016 24.653 15.938 9.656c.914-.785 1.885-1.488 2.893-2.125l11.536-27.035c2.558-5.991 3.273-12.609 2.057-19.009z" fill="#fd995b"/><path d="m224.045 279.922-17.174-3.884h-1.142l11.736 32.569c1.834 5.089 2.083 10.432.974 15.414l14.29-26.01.686-6.361c0-5.619-3.891-10.488-9.37-11.728z" fill="#fd995b"/><path d="m423.497 266.327c-1.423-10.663-5.471-23.312-6.377-34.231-1.256-15.135-11.111-28.169-25.306-33.567-13.502-5.135-28.645-11.4-40.356-16.356-.624.414-1.232.79-1.818 1.129-6.875 3.978-12.736 8.546-16.121 11.475-15.604 13.505-39.506 13.522-55.131 0-3.385-2.929-9.246-7.497-16.121-11.475-.586-.339-1.194-.715-1.818-1.129-10.395 4.399-23.494 9.829-35.75 14.585 1.786 1.306 2.954 3.41 2.954 5.787v43.321c0 3.961-3.211 7.173-7.172 7.173h-23.277l8.654 24.014 17.174 3.884c5.48 1.239 9.371 6.109 9.371 11.727l-.703 33.14c-.367 17.307-2.63 34.522-6.747 51.336l-2.964 12.103c6.214-13.317 20.204-18.636 34.923-18.284l.002-.011c33.782-.864 65.834 5.232 102.287-4.062l2.986.987v.003c3.731-.108 7.534.441 11.27 1.733l6.051-76.913c0-5.614 3.885-10.481 9.36-11.724l29.057-6.6c3.661-.832 6.069-4.322 5.572-8.045z" fill="#ff4155"/><path d="m268.888 334.315s0-53.333 0-89.333 24.374-41.98 24.374-41.98c-5.37-1.659-10.453-4.399-14.873-8.225-3.385-2.929-9.246-7.497-16.121-11.475-.586-.339-1.194-.715-1.818-1.129-10.396 4.399-23.494 9.828-35.75 14.585 1.786 1.305 2.954 3.41 2.954 5.787v43.321c0 3.961-3.211 7.172-7.173 7.172h-23.277l8.654 24.014 17.174 3.884c5.48 1.239 9.371 6.109 9.371 11.727l-.703 33.14c-.367 17.307-2.63 34.522-6.747 51.336l-2.964 12.104c6.214-13.317 20.204-18.636 34.923-18.284l.002-.011c8.963-.229 17.804.032 26.638.366-16.868-13.985-14.664-36.999-14.664-36.999z" fill="#e80054"/><path d="m273.63 376.107 56.444 27.343.09-2.296c.507-12.937 7.286-24.144 18.133-29.977 4.454-2.396 9.169-1.602 13.888-1.743v-1.391l-2.985-.987c-39.527 7.034-54.903 3.037-102.287 3.037l-.296 1.405c5.84.107 11.664 1.629 17.013 4.609z" fill="#ffdd40"/><path d="m333.908 405.584c8.139 5.013 19.133 8.49 29.408 9.303 9.846.775 19.34-4.268 24.153-12.863l7.003-12.507c1.444-2.579 3.34-4.781 5.534-6.573l-20.086-12.17c-22.684-13.743-51.189 3.635-51.216 31.911z" fill="#ffdd40"/><path d="m469.201 373.794c-11.453-4.349-24.365.345-30.35 11.034l-2.874 5.132c3.52 7.143 3.584 15.902-.822 23.435-10.849 18.548-25.732 40.798-30.01 49.353-.709 1.418-1.438 2.725-2.18 3.971 2.12 1.108 4.09 2.511 5.825 4.216 3.668 3.606 8.892 7.213 15.109 7.213 12.436 0 20.892-5.472 27.856-19.4 4.277-8.554 19.16-30.805 30.009-49.353 7.723-13.201 1.735-30.171-12.563-35.601z" fill="#fcad6d"/><path d="m459.859 444.927c-21.405 5.783-30.732-7.528-34.327-15.653-8.651 13.934-17.294 27.287-20.387 33.474-.709 1.418-1.438 2.725-2.18 3.971 2.12 1.108 4.09 2.511 5.825 4.216 3.668 3.606 8.892 7.213 15.109 7.213 12.436 0 20.892-5.472 27.856-19.4 1.546-3.091 4.48-7.975 8.104-13.821z" fill="#fd995b"/><g><path d="m279.809 431.054c-.002-.199-.002-.399-.002-.599 0-20.043 14.303-35.05 31.693-38.968l-37.184-20.714c-24.682-13.75-55.703 3.651-55.703 31.95 0 .184.001.367.002.55.151 21.465 15.294 39.91 36.257 44.531l31.119 6.86c-3.896-7.059-6.122-15.115-6.182-23.61z" fill="#ffdd40"/></g><path d="m260.221 403.449c-17.052-7.505-10.331-28.262-6.35-37.392-18.607 1.072-35.258 15.936-35.258 36.667 0 .184.001.367.002.55.151 21.465 15.294 39.91 36.257 44.531l31.119 6.86c-3.896-7.06-6.122-15.115-6.182-23.611-.002-.199-.002-.398-.002-.598 0-5.955 1.271-11.46 3.502-16.367-8.874-4.038-16.768-7.858-23.088-10.64z" fill="#ffb332"/><path d="m423.591 377.794c-11.453-4.349-24.364.345-30.35 11.034l-7.004 12.507c-4.571 8.163-13.483 12.884-22.81 12.146-10.193-.807-20.866-4.226-28.779-9.099l-24.606-13.707c-17.154 4.098-31.175 18.998-31.175 38.84 0 .2.001.4.002.599.062 8.831 2.46 17.191 6.647 24.447l59.871 13.198c6.631.04 13.065 2.528 17.794 7.177 3.668 3.606 8.892 7.213 15.109 7.213 12.436 0 20.892-5.472 27.856-19.4 4.277-8.554 19.16-30.805 30.009-49.352 7.722-13.203 1.733-30.173-12.564-35.603z" fill="#f9ba8f"/><path d="m363.18 474.935c2.014 1.98 4.499 3.956 7.358 5.339-8.35-17.495 1.367-44.626-11.331-44.626-25.785 0-54.671-11.856-77.03-22.076-2.113 4.799-3.311 10.159-3.311 15.943 0 .2.001.4.002.598.062 8.832 2.46 17.191 6.647 24.447l59.871 13.198c6.631.039 13.065 2.528 17.794 7.177z" fill="#fcad6d"/><path d="m199.002 253.544h-21.842c-2.363 0-4.502-.945-6.069-2.475h-10.046l8.097 67.867c1.294 10.846 8.873 20.009 19.376 23.005 7.871 2.245 11.782 1.569 16.065-.381 12.779-5.819 18.655-20.757 13.895-33.966z" fill="#fcad6d"/><path d="m220.48 193.852h-43.32c-4.801 0-8.693 3.892-8.693 8.693v1.788h5.673c4.957 0 9.012 4.055 9.012 9.012v29.155c0 4.957-4.056 9.012-9.012 9.012h-3.581c1.594 1.863 3.958 3.047 6.602 3.047h43.321c4.801 0 8.693-3.892 8.693-8.693v-43.321c-.002-4.801-3.894-8.693-8.695-8.693z" fill="#73c3f9"/><path d="m198.82 245.865v-43.321c0-4.801 3.892-8.693 8.693-8.693h-30.353c-4.801 0-8.693 3.892-8.693 8.693v1.788h5.673c4.957 0 9.012 4.055 9.012 9.012v29.155c0 4.957-4.056 9.012-9.012 9.012h-3.581c1.594 1.863 3.958 3.047 6.602 3.047h30.353c-4.802 0-8.694-3.892-8.694-8.693z" fill="#4fabf7"/><path d="m174.784 252.083h-18.034c-5.077 0-9.23-4.154-9.23-9.231v-29.861c0-5.077 4.154-9.231 9.23-9.231h18.034c5.077 0 9.23 4.154 9.23 9.231v29.861c.001 5.077-4.153 9.231-9.23 9.231z" fill="#f9ba8f"/><path d="m146.69 410.321h-43.32c-4.801 0-8.693 3.892-8.693 8.693v32.366c8.1 7.093 16.671 13.658 25.661 19.648h26.353c4.801 0 8.693-3.892 8.693-8.693v-43.321c-.001-4.802-3.893-8.693-8.694-8.693z" fill="#50dd89"/><path d="m125.03 462.334v-43.321c0-4.801 3.892-8.693 8.693-8.693h-30.353c-4.801 0-8.693 3.892-8.693 8.693v32.366c8.1 7.093 16.671 13.658 25.661 19.648h13.385c-4.801 0-8.693-3.892-8.693-8.693z" fill="#38c674"/><path d="m146.69 315.174h-43.32c-4.801 0-8.693 3.892-8.693 8.693v43.321c0 4.801 3.892 8.693 8.693 8.693h43.321c4.801 0 8.693-3.892 8.693-8.693v-43.321c-.001-4.801-3.893-8.693-8.694-8.693z" fill="#ff4155"/><path d="m133.157 375.88h-43.32c-4.801 0-8.693 3.892-8.693 8.693v17.314c0 4.801 3.892 8.693 8.693 8.693h43.321c4.801 0 8.693-3.892 8.693-8.693v-17.314c-.001-4.801-3.893-8.693-8.694-8.693z" fill="#ffdd40"/><path d="m177.043 315.174h-43.321c-4.801 0-8.693 3.892-8.693 8.693v43.321c0 4.801 3.892 8.693 8.693 8.693h43.321c4.801 0 8.693-3.892 8.693-8.693v-43.321c0-4.801-3.892-8.693-8.693-8.693z" fill="#ff4155"/><path d="m125.03 367.187v-43.321c0-4.801 3.892-8.693 8.693-8.693h-30.353c-4.801 0-8.693 3.892-8.693 8.693v43.321c0 4.801 3.892 8.693 8.693 8.693h30.353c-4.801 0-8.693-3.892-8.693-8.693z" fill="#e80054"/><path d="m111.497 401.887v-17.314c0-4.801 3.892-8.693 8.693-8.693h-30.353c-4.801 0-8.693 3.892-8.693 8.693v17.314c0 4.801 3.892 8.693 8.693 8.693h30.353c-4.801-.001-8.693-3.892-8.693-8.693z" fill="#ffb332"/><path d="m201.674 410.321c-16.764 0-30.353 13.589-30.353 30.353 0 16.764 13.59 30.353 30.353 30.353 16.764 0 30.353-13.59 30.353-30.353v-.001c0-16.763-13.589-30.352-30.353-30.352z" fill="#73c3f9"/><path d="m220.62 464.09c-12.933 0-23.417-10.484-23.417-23.417s10.484-23.417 23.417-23.417c.127 0 .252.008.379.01-5.249-4.339-11.982-6.946-19.325-6.946-16.764 0-30.353 13.59-30.353 30.353s13.59 30.353 30.353 30.353c7.342 0 14.075-2.607 19.325-6.946-.127.003-.252.01-.379.01z" fill="#4fabf7"/><path d="m272.294 463.854-23.932-45.339c-1.835-3.477-6.815-3.477-8.65 0l-23.932 45.339c-1.719 3.257.642 7.173 4.325 7.173h47.864c3.682 0 6.044-3.917 4.325-7.173z" fill="#ff4155"/><g fill="#e80054"><path d="m237.306 467.281 15.833-29.995c.901-1.707 2.946-2.141 4.438-1.314l-9.215-17.458c-1.835-3.477-6.815-3.477-8.65 0l-23.932 45.339c-1.719 3.257.642 7.173 4.325 7.173h17.727c-.905-.951-1.221-2.428-.526-3.745z"/><path d="m388.866 280.972 15.231-3.46c-3.212-11.306-8.265-21.385-12.964-29.163-3.281-5.431-11.626-3.1-11.626 3.245v41.102c-.001-5.613 3.885-10.48 9.359-11.724z"/></g></g></svg>